<svg>
    <g id="SvgjsG1012" featurekey="v37d4h-0"
        transform="matrix(0.11012500732355114,0,0,0.11012500732355114,0.016783013580749222,0)"
        fill="#fc4c69">
        <defs xmlns="http://www.w3.org/2000/svg"></defs>
        <g xmlns="http://www.w3.org/2000/svg">
            <path class="fil0"
                d="M151 49c-4,4 -10,5 -20,4 5,-6 8,-15 9,-21 3,-17 7,-32 29,-32 22,0 25,15 28,32 2,6 5,15 10,21 -11,1 -16,0 -20,-4 -11,9 -26,9 -36,0z"
                style="fill: #fc4c69;"></path>
            <circle class="fil0" cx="56" cy="29" r="29" style="fill: #fc4c69;"></circle>
            <path class="fil0"
                d="M115 88c55,-49 125,-9 114,54 -5,25 -18,46 -37,64 9,-12 16,-25 18,-40 10,-53 -49,-87 -95,-46 -46,-41 -105,-7 -96,46 3,15 10,28 19,40 -19,-18 -32,-39 -37,-64 -11,-63 59,-103 114,-54z"
                style="fill: #fc4c69;"></path>
            <path class="fil0"
                d="M115 132c40,-37 93,-7 84,40 -7,39 -43,63 -84,85 -41,-22 -77,-46 -84,-85 -9,-47 43,-77 84,-40z"
                style="fill: #fc4c69;"></path>
        </g>
    </g>
</svg>