<?xml version="1.0" encoding="UTF-8"?>
<svg xmlns="http://www.w3.org/2000/svg" version="1.1" viewBox="0 0 123.1 25.7">
  <defs>
    <style>
      .cls-1 {
        fill: #65605f;
        font-family: VisbyCF-DemiBold, 'Visby CF Demi Bold';
        font-size: 10px;
        font-weight: 300;
      }

      .cls-2 {
        fill: #fc4c69;
      }
    </style>
  </defs>
  <!-- Generator: Adobe Illustrator 28.7.1, SVG Export Plug-In . SVG Version: 1.2.0 Build 142)  -->
  <g>
    <g id="Lag_1">
      <text class="cls-1" transform="translate(25.5 11.9)"><tspan x="0" y="0">Sunhedsteknologisk </tspan><tspan x="0" y="10">Rejseforening</tspan></text>
      <g id="SvgjsG1012">
        <g>
          <path class="cls-2" d="M15.1,7.4c-.3.3-.7.4-1.5.3.4-.4.6-1.1.7-1.6.2-1.3.5-2.4,2.2-2.4s1.9,1.1,2.1,2.4c.1.4.4,1.1.7,1.6-.8,0-1.2,0-1.5-.3-.8.7-1.9.7-2.7,0Z"/>
          <circle class="cls-2" cx="8" cy="5.9" r="2.2"/>
          <path class="cls-2" d="M12.4,10.3c4.1-3.7,9.3-.7,8.5,4-.4,1.9-1.3,3.4-2.8,4.8.7-.9,1.2-1.9,1.3-3,.7-4-3.7-6.5-7.1-3.4-3.4-3.1-7.8-.5-7.2,3.4.2,1.1.7,2.1,1.4,3-1.4-1.3-2.4-2.9-2.8-4.8-.8-4.7,4.4-7.7,8.5-4Z"/>
          <path class="cls-2" d="M12.4,13.6c3-2.8,6.9-.5,6.3,3-.5,2.9-3.2,4.7-6.3,6.3-3.1-1.6-5.8-3.4-6.3-6.3-.7-3.5,3.2-5.8,6.3-3Z"/>
        </g>
      </g>
    </g>
  </g>
</svg>