<?xml version="1.0" encoding="UTF-8"?>
<svg id="Lag_1" xmlns="http://www.w3.org/2000/svg" viewBox="0 0 118.22 20.95">
  <g>
    <path d="M26.82,2.84l-.82.47c-.35-.59-.8-.95-1.45-.95s-1.11.38-1.11.9c0,.49.31.79.98,1.04l.49.18c1.39.51,2.1,1.11,2.1,2.16,0,1.29-1.23,2.01-2.42,2.01s-2.2-.73-2.5-1.72l.86-.44c.25.64.79,1.16,1.64,1.16.7,0,1.28-.37,1.28-1,0-.67-.45-.94-1.25-1.24l-.48-.18c-1.05-.39-1.79-.92-1.79-2.01s.96-1.84,2.2-1.84c1.15,0,1.94.74,2.27,1.46Z" fill="#65605f"/>
    <path d="M27.81,6.31v-3.01h1.08v2.95c0,.99.47,1.38,1.14,1.38.86,0,1.42-.8,1.54-1.31v-3.02h1.08v5.2h-1.08v-1.1c-.1.32-.7,1.18-1.78,1.18-1,0-1.98-.65-1.98-2.27Z" fill="#65605f"/>
    <path d="M38.59,5.49v3.01h-1.08v-2.95c0-.99-.47-1.38-1.14-1.38-.86,0-1.42.8-1.54,1.31v3.02h-1.08V3.3h1.08v1.1c.1-.32.7-1.18,1.78-1.18,1,0,1.98.65,1.98,2.27Z" fill="#65605f"/>
    <path d="M44.43,5.49v3.01h-1.08v-2.95c0-.99-.47-1.38-1.14-1.38-.86,0-1.42.8-1.54,1.31v3.02h-1.08V1.43h1.08v2.97c.1-.32.7-1.18,1.78-1.18,1,0,1.98.65,1.98,2.27Z" fill="#65605f"/>
    <path d="M50.45,6.29h-4.14c.16.93.9,1.39,1.74,1.39.69,0,1.06-.18,1.44-.48l.61.58c-.46.52-1.12.82-2.08.82-1.32,0-2.79-.9-2.79-2.69s1.51-2.7,2.69-2.7,2.78.9,2.53,3.08ZM46.32,5.5h3.18c-.12-.91-.91-1.36-1.58-1.36s-1.42.45-1.6,1.36Z" fill="#65605f"/>
    <path d="M56.54,1.43v7.07h-1.08v-.86c-.13.42-.75.96-1.69.96-1.18,0-2.59-.88-2.59-2.7s1.41-2.69,2.59-2.69c.94,0,1.56.56,1.69.9V1.43h1.08ZM55.51,5.9c0-1.16-.79-1.73-1.6-1.73s-1.68.58-1.68,1.73.87,1.74,1.68,1.74,1.6-.57,1.6-1.74Z" fill="#65605f"/>
    <path d="M59.29,4.08c-.4,0-.7.24-.7.57,0,.3.17.51.59.66l.57.2c.82.29,1.5.6,1.5,1.55,0,1.01-.99,1.55-1.95,1.55s-1.76-.53-1.96-1.42l.86-.26c.15.47.54.81,1.1.81.46,0,.88-.27.88-.68,0-.33-.23-.53-.67-.69l-.59-.21c-.96-.34-1.38-.86-1.38-1.52,0-.87.78-1.43,1.71-1.43s1.52.49,1.8,1.23l-.9.25c-.18-.4-.47-.61-.86-.61Z" fill="#65605f"/>
    <path d="M63.5,4.2v2.91c0,.28.1.5.42.5.27,0,.46-.05.68-.14v.91c-.22.11-.51.18-.96.18-.65,0-1.22-.26-1.22-1.41v-2.95h-.72v-.9h.72v-1.22h1.08v1.22h1.1v.9h-1.1Z" fill="#65605f"/>
    <path d="M70.32,6.29h-4.14c.16.93.9,1.39,1.74,1.39.69,0,1.06-.18,1.44-.48l.61.58c-.46.52-1.12.82-2.08.82-1.32,0-2.79-.9-2.79-2.69s1.51-2.7,2.69-2.7,2.78.9,2.53,3.08ZM66.19,5.5h3.18c-.12-.91-.91-1.36-1.58-1.36s-1.42.45-1.6,1.36Z" fill="#65605f"/>
    <path d="M72.92,6.28l-.59.61v1.61h-1.08V1.43h1.08v4.14l2.12-2.27h1.3l-2.16,2.27,2.63,2.93h-1.26l-2.04-2.22Z" fill="#65605f"/>
    <path d="M81.81,5.49v3.01h-1.08v-2.95c0-.99-.47-1.38-1.14-1.38-.86,0-1.42.8-1.54,1.31v3.02h-1.08V3.3h1.08v1.1c.1-.32.7-1.18,1.78-1.18,1,0,1.98.65,1.98,2.27Z" fill="#65605f"/>
    <path d="M87.99,5.91c0,1.81-1.51,2.69-2.69,2.69s-2.69-.88-2.69-2.69,1.51-2.7,2.69-2.7,2.69.9,2.69,2.7ZM83.66,5.91c0,1.15.88,1.73,1.64,1.73s1.64-.58,1.64-1.73-.88-1.74-1.64-1.74-1.64.58-1.64,1.74Z" fill="#65605f"/>
    <path d="M89.97,8.5h-1.08V1.43h1.08v7.07Z" fill="#65605f"/>
    <path d="M96.25,5.91c0,1.81-1.51,2.69-2.69,2.69s-2.69-.88-2.69-2.69,1.51-2.7,2.69-2.7,2.69.9,2.69,2.7ZM91.92,5.91c0,1.15.88,1.73,1.64,1.73s1.64-.58,1.64-1.73-.88-1.74-1.64-1.74-1.64.58-1.64,1.74Z" fill="#65605f"/>
    <path d="M102.31,3.3v5.2c0,1.57-1.45,2.06-2.51,2.06-.71,0-1.22-.17-1.49-.35v-.9c.27.18.77.34,1.49.34.91,0,1.43-.49,1.43-1.15v-.86c-.13.42-.75.96-1.69.96-1.18,0-2.59-.88-2.59-2.7s1.41-2.69,2.59-2.69c.94,0,1.56.56,1.69.9v-.81h1.08ZM101.28,5.9c0-1.16-.79-1.73-1.6-1.73s-1.68.58-1.68,1.73.87,1.74,1.68,1.74,1.6-.57,1.6-1.74Z" fill="#65605f"/>
    <path d="M104.49,2.37h-1.08v-.94h1.08v.94ZM104.49,8.5h-1.08V3.3h1.08v5.2Z" fill="#65605f"/>
    <path d="M107.24,4.08c-.4,0-.7.24-.7.57,0,.3.17.51.59.66l.57.2c.82.29,1.5.6,1.5,1.55,0,1.01-.99,1.55-1.95,1.55s-1.76-.53-1.96-1.42l.86-.26c.15.47.54.81,1.1.81.46,0,.88-.27.88-.68,0-.33-.23-.53-.67-.69l-.59-.21c-.96-.34-1.38-.86-1.38-1.52,0-.87.78-1.43,1.71-1.43s1.52.49,1.8,1.23l-.9.25c-.18-.4-.47-.61-.86-.61Z" fill="#65605f"/>
    <path d="M111.72,6.28l-.59.61v1.61h-1.08V1.43h1.08v4.14l2.12-2.27h1.3l-2.16,2.27,2.63,2.93h-1.26l-2.04-2.22Z" fill="#65605f"/>
    <path d="M26.46,18.5l-1.65-2.44h-1.37v2.44h-1.1v-7h2.35c1.57,0,2.53.96,2.53,2.31,0,.98-.51,1.73-1.39,2.06l1.81,2.63h-1.18ZM23.44,15.1h1.2c.89,0,1.48-.42,1.48-1.29s-.59-1.29-1.48-1.29h-1.2v2.58Z" fill="#65605f"/>
    <path d="M33.11,16.29h-4.14c.16.93.9,1.39,1.74,1.39.69,0,1.06-.18,1.44-.48l.61.58c-.46.52-1.12.82-2.08.82-1.32,0-2.79-.9-2.79-2.69s1.51-2.7,2.69-2.7,2.78.9,2.53,3.08ZM28.98,15.5h3.18c-.12-.91-.91-1.36-1.58-1.36s-1.42.45-1.6,1.36Z" fill="#65605f"/>
    <path d="M35.17,19.05c0,1.06-.56,1.51-1.41,1.51-.49,0-.78-.11-1.02-.26v-1.05c.24.13.47.21.78.21.46,0,.57-.34.57-.7v-5.46h1.08v5.75ZM35.17,12.37h-1.08v-.94h1.08v.94Z" fill="#65605f"/>
    <path d="M37.92,14.08c-.4,0-.7.24-.7.57,0,.3.17.51.59.66l.57.2c.82.29,1.5.6,1.5,1.55,0,1.01-.99,1.55-1.95,1.55s-1.76-.53-1.96-1.42l.86-.26c.15.47.54.81,1.1.81.46,0,.88-.27.88-.68,0-.33-.23-.53-.67-.69l-.59-.21c-.96-.34-1.38-.86-1.38-1.52,0-.87.78-1.43,1.71-1.43s1.52.49,1.8,1.23l-.9.25c-.18-.4-.47-.61-.86-.61Z" fill="#65605f"/>
    <path d="M45.75,16.29h-4.14c.16.93.9,1.39,1.74,1.39.69,0,1.06-.18,1.44-.48l.61.58c-.46.52-1.12.82-2.08.82-1.32,0-2.79-.9-2.79-2.69s1.51-2.7,2.69-2.7,2.78.9,2.53,3.08ZM41.62,15.5h3.18c-.12-.91-.91-1.36-1.58-1.36s-1.42.45-1.6,1.36Z" fill="#65605f"/>
    <path d="M48.03,13v.3h1.34v.9h-1.34v4.3h-1.08v-4.3h-.62v-.9h.62v-.3c0-1.45,1.01-1.67,1.66-1.67.46,0,.89.12,1.21.32l-.38.75c-.25-.11-.44-.17-.72-.17-.51,0-.69.32-.69.77Z" fill="#65605f"/>
    <path d="M55.3,15.91c0,1.81-1.51,2.69-2.69,2.69s-2.69-.88-2.69-2.69,1.51-2.7,2.69-2.7,2.69.9,2.69,2.7ZM50.97,15.91c0,1.15.88,1.73,1.64,1.73s1.64-.58,1.64-1.73-.88-1.74-1.64-1.74-1.64.58-1.64,1.74Z" fill="#65605f"/>
    <path d="M59.46,13.24v1.03c-.1-.02-.2-.02-.28-.02-.98,0-1.78.7-1.9,1.8v2.45h-1.08v-5.2h1.08v1.33c.22-.77.89-1.41,1.87-1.41.11,0,.21,0,.31.02Z" fill="#65605f"/>
    <path d="M65.13,16.29h-4.14c.16.93.9,1.39,1.74,1.39.69,0,1.06-.18,1.44-.48l.61.58c-.46.52-1.12.82-2.08.82-1.32,0-2.79-.9-2.79-2.69s1.51-2.7,2.69-2.7,2.78.9,2.53,3.08ZM61,15.5h3.18c-.12-.91-.91-1.36-1.58-1.36s-1.42.45-1.6,1.36Z" fill="#65605f"/>
    <path d="M70.9,15.49v3.01h-1.08v-2.95c0-.99-.47-1.38-1.14-1.38-.86,0-1.42.8-1.54,1.31v3.02h-1.08v-5.2h1.08v1.1c.1-.32.7-1.18,1.78-1.18,1,0,1.98.65,1.98,2.27Z" fill="#65605f"/>
    <path d="M72.98,12.37h-1.08v-.94h1.08v.94ZM72.98,18.5h-1.08v-5.2h1.08v5.2Z" fill="#65605f"/>
    <path d="M78.92,15.49v3.01h-1.08v-2.95c0-.99-.47-1.38-1.14-1.38-.86,0-1.42.8-1.54,1.31v3.02h-1.08v-5.2h1.08v1.1c.1-.32.7-1.18,1.78-1.18,1,0,1.98.65,1.98,2.27Z" fill="#65605f"/>
    <path d="M85.08,13.3v5.2c0,1.57-1.45,2.06-2.51,2.06-.71,0-1.22-.17-1.49-.35v-.9c.27.18.77.34,1.49.34.91,0,1.43-.49,1.43-1.15v-.86c-.13.42-.75.96-1.69.96-1.18,0-2.59-.88-2.59-2.7s1.41-2.69,2.59-2.69c.94,0,1.56.56,1.69.9v-.81h1.08ZM84.05,15.9c0-1.16-.79-1.73-1.6-1.73s-1.68.58-1.68,1.73.87,1.74,1.68,1.74,1.6-.57,1.6-1.74Z" fill="#65605f"/>
  </g>
  <g id="SvgjsG1012">
    <g>
      <path d="M11.29,4.01c-.3.3-.75.37-1.49.3.37-.45.6-1.12.67-1.57.22-1.27.52-2.39,2.17-2.39s1.87,1.12,2.09,2.39c.15.45.37,1.12.75,1.57-.82.07-1.2,0-1.49-.3-.82.67-1.94.67-2.69,0Z" fill="#fc4c69"/>
      <circle cx="4.19" cy="2.52" r="2.17" fill="#fc4c69"/>
      <path d="M8.6,6.93c4.11-3.66,9.34-.67,8.52,4.03-.37,1.87-1.34,3.44-2.76,4.78.67-.9,1.2-1.87,1.34-2.99.75-3.96-3.66-6.5-7.1-3.44-3.44-3.06-7.84-.52-7.17,3.44.22,1.12.75,2.09,1.42,2.99C1.43,14.4.46,12.83.09,10.96-.74,6.25,4.49,3.27,8.6,6.93Z" fill="#fc4c69"/>
      <path d="M8.6,10.21c2.99-2.76,6.95-.52,6.27,2.99-.52,2.91-3.21,4.71-6.27,6.35-3.06-1.64-5.75-3.44-6.27-6.35-.67-3.51,3.21-5.75,6.27-2.99Z" fill="#fc4c69"/>
    </g>
  </g>
</svg>